# xmcd
#
# Track frame offsets:
#	150
#	16273
#	35159
#	52060
#	63518
#	86232
#	97343
#	115249
#	130462
#	143010
#	155016
#	170340
#
# Disc length: 2438 seconds
# Revision: 0
# Processed by: cddbd v1.5.2PL0 Copyright (c) Steve Scherf et al.
# Submitted via: dBpowerAMP V12.0
#
DISCID=b109840c
DTITLE=Breaking Grass - Breaking Grass
DYEAR=2011
DGENRE=Country
TTITLE0=The Ghost Song
TTITLE1=Letter From an Angel
TTITLE2=Please Don't Cry
TTITLE3=April Rain
TTITLE4=Kentucky to Caroline
TTITLE5=Wildflower Girl
TTITLE6=If It's Not Too Much to Ask
TTITLE7=On Home
TTITLE8=Fire Mountain
TTITLE9=Making Tracks
TTITLE10=Other Plans
TTITLE11=God's Still Good
EXTD=
EXTT0=
EXTT1=
EXTT2=
EXTT3=
EXTT4=
EXTT5=
EXTT6=
EXTT7=
EXTT8=
EXTT9=
EXTT10=
EXTT11=
PLAYORDER=
